<svg width="900" height="900" viewBox="0 0 900 900" fill="none" xmlns="http://www.w3.org/2000/svg">
  <defs>
    <linearGradient id="bg" x1="0" y1="0" x2="1" y2="1">
      <stop offset="0%" stop-color="#F7F4EA"/>
      <stop offset="100%" stop-color="#EDE6D3"/>
    </linearGradient>
    <linearGradient id="tin" x1="0" y1="0" x2="0" y2="1">
      <stop offset="0%" stop-color="#436B57"/>
      <stop offset="100%" stop-color="#1B4332"/>
    </linearGradient>
    <radialGradient id="glow" cx="0" cy="0" r="1" gradientUnits="userSpaceOnUse" gradientTransform="translate(450 700) rotate(90) scale(180 260)">
      <stop stop-color="#111111" stop-opacity="0.25"/>
      <stop offset="1" stop-color="#111111" stop-opacity="0"/>
    </radialGradient>
  </defs>

  <rect width="900" height="900" fill="url(#bg)"/>
  <ellipse cx="450" cy="705" rx="210" ry="84" fill="url(#glow)"/>
  <rect x="285" y="180" width="330" height="520" rx="92" fill="url(#tin)"/>
  <rect x="318" y="165" width="264" height="80" rx="40" fill="#D6BE95"/>
  <rect x="318" y="250" width="264" height="365" rx="34" fill="#FAF8F0"/>

  <path d="M450 340C480 302 540 308 562 348C585 389 560 454 494 482C475 489 462 499 450 520C438 499 425 489 406 482C340 454 315 389 338 348C360 308 420 302 450 340Z" fill="#2E5A47"/>
  <path d="M450 345V515" stroke="#C2A878" stroke-width="8" stroke-linecap="round"/>

  <text x="450" y="590" text-anchor="middle" font-family="Georgia, serif" font-size="34" fill="#1B4332" letter-spacing="2">IMPERIAL MATCHA</text>
</svg>
